<svg width="500" height="500" viewBox="0 0 500 500" fill="none" xmlns="http://www.w3.org/2000/svg">
<path d="M211.029 67.5C228.349 37.5 271.651 37.5 288.971 67.5L427.535 307.5C444.856 337.5 423.205 375 388.564 375H111.436C76.7949 375 55.1443 337.5 72.4648 307.5L211.029 67.5Z" fill="#00C5AA"/>
<circle cx="250" cy="304" r="20" fill="white"/>
<path d="M282.909 96L399.822 298.5C414.449 323.833 396.166 355.5 366.913 355.5H133.087C103.834 355.5 85.5514 323.833 100.178 298.5L217.091 95.9999C231.717 70.6666 268.283 70.6666 282.909 96Z" stroke="white" stroke-width="14"/>
<rect x="232" y="109" width="36" height="160" rx="18" fill="white"/>
</svg>
