<svg xmlns="http://www.w3.org/2000/svg" width="16" height="19"><g fill="none" fill-rule="evenodd"><path stroke="#323232" stroke-width="1.2" d="M8.89 2.108l-.874-.076a.287.287 0 0 0-.043 0l-.905.077c-3.17.49-5.58 3.47-5.58 6.94v4.57l-.05.116-.82 1.86a.406.406 0 0 0 .048.343c.057.085.14.13.222.13l14.174.005a7.18 7.18 0 0 0-.105.015l.115-.015h.102a.27.27 0 0 0-.065-.005h.003c.15 0 .288-.148.288-.352a.46.46 0 0 0-.063-.225l-.843-1.868V9.05c0-3.465-2.402-6.433-5.604-6.941z"/><path fill="#323232" d="M5.55 16h4.9a2.5 2.5 0 1 1-4.9 0zM6.585 2a1.5 1.5 0 1 1 2.83 0h-2.83z"/></g></svg>