<?xml version="1.0" encoding="iso-8859-1"?>
<!-- Generator: Adobe Illustrator 18.1.1, SVG Export Plug-In . SVG Version: 6.00 Build 0)  -->
<svg version="1.1" id="Capa_1" xmlns="http://www.w3.org/2000/svg" xmlns:xlink="http://www.w3.org/1999/xlink" x="0px" y="0px"
	 viewBox="0 0 475.433 475.433" style="enable-background:new 0 0 475.433 475.433;" xml:space="preserve">
<g>
	<g>
		<path d="M237.717,17.425C106.533,17.425,0,101.008,0,203.575c0,52.983,28.333,102.567,77.917,137.983l-17,96.617
			c-1.133,6.517,1.417,13.033,6.8,16.717c2.833,2.267,6.517,3.117,9.917,3.117c2.833,0,5.667-0.567,7.933-1.983l125.517-67.433
			c9.067,0.85,17.85,1.133,26.633,1.133c131.183,0,237.717-83.583,237.717-186.15S368.9,17.425,237.717,17.425z M237.717,355.442
			c-9.067,0-18.7-0.567-28.333-1.417c-3.4-0.283-6.8,0.283-9.917,1.983L100.3,409.275l12.75-72.817c1.133-6.8-1.7-13.6-7.65-17.283
			c-45.617-29.183-71.683-71.117-71.683-115.6c0-83.867,91.517-152.15,203.717-152.15s203.717,68.283,203.717,152.15
			S349.917,355.442,237.717,355.442z"/>
	</g>
</g>
<g>
</g>
<g>
</g>
<g>
</g>
<g>
</g>
<g>
</g>
<g>
</g>
<g>
</g>
<g>
</g>
<g>
</g>
<g>
</g>
<g>
</g>
<g>
</g>
<g>
</g>
<g>
</g>
<g>
</g>
</svg>
